<svg width="100%" viewBox="0 0 680 210" xmlns="http://www.w3.org/2000/svg">
  <rect x="0" y="0" width="680" height="210" fill="#0d1117"/>
  <circle cx="80" cy="18" r="1.5" fill="#fac775" opacity="0.7"/>
  <circle cx="160" cy="10" r="1" fill="#fac775" opacity="0.5"/>
  <circle cx="250" cy="16" r="1.5" fill="#fac775" opacity="0.6"/>
  <circle cx="340" cy="8" r="1" fill="#fac775" opacity="0.4"/>
  <circle cx="440" cy="14" r="1.5" fill="#fac775" opacity="0.7"/>
  <circle cx="540" cy="9" r="1" fill="#fac775" opacity="0.5"/>
  <circle cx="620" cy="20" r="1.5" fill="#fac775" opacity="0.6"/>
  <rect x="18" y="78" width="48" height="72" fill="#0f6e56" rx="2"/>
  <rect x="25" y="68" width="34" height="12" fill="#1d9e75" rx="1"/>
  <rect x="31" y="58" width="22" height="12" fill="#1d9e75" rx="1"/>
  <rect x="38" y="50" width="8" height="10" fill="#5dcaa5" rx="1"/>
  <rect x="24" y="88" width="7" height="7" fill="#9fe1cb" rx="1" opacity="0.9"/>
  <rect x="35" y="88" width="7" height="7" fill="#e1f5ee" rx="1" opacity="0.9"/>
  <rect x="46" y="88" width="7" height="7" fill="#9fe1cb" rx="1" opacity="0.7"/>
  <rect x="24" y="100" width="7" height="7" fill="#e1f5ee" rx="1" opacity="0.8"/>
  <rect x="35" y="100" width="7" height="7" fill="#9fe1cb" rx="1" opacity="0.9"/>
  <rect x="46" y="100" width="7" height="7" fill="#e1f5ee" rx="1" opacity="0.6"/>
  <rect x="24" y="112" width="7" height="7" fill="#9fe1cb" rx="1" opacity="0.5"/>
  <rect x="35" y="112" width="7" height="7" fill="#e1f5ee" rx="1" opacity="0.9"/>
  <rect x="46" y="112" width="7" height="7" fill="#9fe1cb" rx="1" opacity="0.8"/>
  <rect x="24" y="124" width="7" height="7" fill="#e1f5ee" rx="1" opacity="0.9"/>
  <rect x="35" y="124" width="7" height="7" fill="#9fe1cb" rx="1" opacity="0.6"/>
  <rect x="46" y="124" width="7" height="7" fill="#e1f5ee" rx="1" opacity="0.7"/>
  <rect x="26" y="136" width="14" height="14" fill="#085041" rx="1"/>
  <rect x="44" y="139" width="14" height="11" fill="#085041" rx="1"/>
  <rect x="80" y="95" width="46" height="55" fill="#185fa5" rx="2"/>
  <rect x="84" y="86" width="38" height="11" fill="#378add" rx="1"/>
  <rect x="88" y="78" width="30" height="10" fill="#378add" rx="1"/>
  <rect x="82" y="104" width="8" height="8" fill="#b5d4f4" rx="1" opacity="0.9"/>
  <rect x="94" y="104" width="8" height="8" fill="#e6f1fb" rx="1" opacity="0.9"/>
  <rect x="106" y="104" width="8" height="8" fill="#b5d4f4" rx="1" opacity="0.7"/>
  <rect x="82" y="117" width="8" height="8" fill="#e6f1fb" rx="1" opacity="0.8"/>
  <rect x="94" y="117" width="8" height="8" fill="#b5d4f4" rx="1" opacity="0.9"/>
  <rect x="106" y="117" width="8" height="8" fill="#e6f1fb" rx="1" opacity="0.6"/>
  <rect x="82" y="130" width="8" height="8" fill="#b5d4f4" rx="1" opacity="0.9"/>
  <rect x="94" y="130" width="8" height="8" fill="#e6f1fb" rx="1" opacity="0.7"/>
  <rect x="106" y="130" width="8" height="8" fill="#b5d4f4" rx="1" opacity="0.5"/>
  <rect x="86" y="142" width="14" height="8" fill="#0c447c" rx="1"/>
  <rect x="104" y="142" width="14" height="8" fill="#0c447c" rx="1"/>
  <rect x="142" y="35" width="68" height="115" fill="#534ab7" rx="2"/>
  <rect x="147" y="24" width="58" height="13" fill="#7f77dd" rx="1"/>
  <rect x="154" y="14" width="44" height="12" fill="#7f77dd" rx="1"/>
  <rect x="163" y="6" width="26" height="10" fill="#afa9ec" rx="1"/>
  <rect x="173" y="1" width="6" height="7" fill="#cecbf6" rx="1"/>
  <rect x="145" y="47" width="9" height="9" fill="#afa9ec" rx="1" opacity="0.9"/>
  <rect x="158" y="47" width="9" height="9" fill="#cecbf6" rx="1" opacity="0.9"/>
  <rect x="171" y="47" width="9" height="9" fill="#afa9ec" rx="1" opacity="0.7"/>
  <rect x="184" y="47" width="9" height="9" fill="#cecbf6" rx="1" opacity="0.8"/>
  <rect x="197" y="47" width="9" height="9" fill="#afa9ec" rx="1" opacity="0.9"/>
  <rect x="145" y="61" width="9" height="9" fill="#cecbf6" rx="1" opacity="0.8"/>
  <rect x="158" y="61" width="9" height="9" fill="#afa9ec" rx="1" opacity="0.9"/>
  <rect x="171" y="61" width="9" height="9" fill="#cecbf6" rx="1" opacity="0.6"/>
  <rect x="184" y="61" width="9" height="9" fill="#afa9ec" rx="1" opacity="0.5"/>
  <rect x="197" y="61" width="9" height="9" fill="#cecbf6" rx="1" opacity="0.9"/>
  <rect x="145" y="75" width="9" height="9" fill="#afa9ec" rx="1" opacity="0.9"/>
  <rect x="158" y="75" width="9" height="9" fill="#cecbf6" rx="1" opacity="0.7"/>
  <rect x="171" y="75" width="9" height="9" fill="#afa9ec" rx="1" opacity="0.9"/>
  <rect x="184" y="75" width="9" height="9" fill="#cecbf6" rx="1" opacity="0.8"/>
  <rect x="197" y="75" width="9" height="9" fill="#afa9ec" rx="1" opacity="0.6"/>
  <rect x="145" y="89" width="9" height="9" fill="#cecbf6" rx="1" opacity="0.5"/>
  <rect x="158" y="89" width="9" height="9" fill="#afa9ec" rx="1" opacity="0.9"/>
  <rect x="171" y="89" width="9" height="9" fill="#cecbf6" rx="1" opacity="0.8"/>
  <rect x="184" y="89" width="9" height="9" fill="#afa9ec" rx="1" opacity="0.9"/>
  <rect x="197" y="89" width="9" height="9" fill="#cecbf6" rx="1" opacity="0.7"/>
  <rect x="145" y="103" width="9" height="9" fill="#afa9ec" rx="1" opacity="0.9"/>
  <rect x="158" y="103" width="9" height="9" fill="#cecbf6" rx="1" opacity="0.6"/>
  <rect x="171" y="103" width="9" height="9" fill="#afa9ec" rx="1" opacity="0.5"/>
  <rect x="184" y="103" width="9" height="9" fill="#cecbf6" rx="1" opacity="0.9"/>
  <rect x="197" y="103" width="9" height="9" fill="#afa9ec" rx="1" opacity="0.8"/>
  <rect x="145" y="117" width="9" height="9" fill="#cecbf6" rx="1" opacity="0.7"/>
  <rect x="158" y="117" width="9" height="9" fill="#afa9ec" rx="1" opacity="0.9"/>
  <rect x="171" y="117" width="9" height="9" fill="#cecbf6" rx="1" opacity="0.8"/>
  <rect x="184" y="117" width="9" height="9" fill="#afa9ec" rx="1" opacity="0.5"/>
  <rect x="197" y="117" width="9" height="9" fill="#cecbf6" rx="1" opacity="0.9"/>
  <rect x="149" y="131" width="20" height="19" fill="#3c3489" rx="1"/>
  <rect x="175" y="131" width="20" height="19" fill="#3c3489" rx="1"/>
  <rect x="149" y="131" width="46" height="4" fill="#7f77dd" rx="0"/>
  <rect x="226" y="55" width="58" height="95" fill="#ba7517" rx="2"/>
  <rect x="231" y="44" width="48" height="13" fill="#ef9f27" rx="1"/>
  <rect x="237" y="34" width="36" height="12" fill="#ef9f27" rx="1"/>
  <rect x="228" y="67" width="9" height="9" fill="#fac775" rx="1" opacity="0.9"/>
  <rect x="241" y="67" width="9" height="9" fill="#faeeda" rx="1" opacity="0.9"/>
  <rect x="254" y="67" width="9" height="9" fill="#fac775" rx="1" opacity="0.7"/>
  <rect x="267" y="67" width="9" height="9" fill="#faeeda" rx="1" opacity="0.8"/>
  <rect x="228" y="81" width="9" height="9" fill="#faeeda" rx="1" opacity="0.8"/>
  <rect x="241" y="81" width="9" height="9" fill="#fac775" rx="1" opacity="0.9"/>
  <rect x="254" y="81" width="9" height="9" fill="#faeeda" rx="1" opacity="0.6"/>
  <rect x="267" y="81" width="9" height="9" fill="#fac775" rx="1" opacity="0.9"/>
  <rect x="228" y="95" width="9" height="9" fill="#fac775" rx="1" opacity="0.5"/>
  <rect x="241" y="95" width="9" height="9" fill="#faeeda" rx="1" opacity="0.9"/>
  <rect x="254" y="95" width="9" height="9" fill="#fac775" rx="1" opacity="0.8"/>
  <rect x="267" y="95" width="9" height="9" fill="#faeeda" rx="1" opacity="0.7"/>
  <rect x="228" y="109" width="9" height="9" fill="#faeeda" rx="1" opacity="0.9"/>
  <rect x="241" y="109" width="9" height="9" fill="#fac775" rx="1" opacity="0.6"/>
  <rect x="254" y="109" width="9" height="9" fill="#faeeda" rx="1" opacity="0.9"/>
  <rect x="267" y="109" width="9" height="9" fill="#fac775" rx="1" opacity="0.5"/>
  <rect x="228" y="123" width="9" height="9" fill="#fac775" rx="1" opacity="0.8"/>
  <rect x="241" y="123" width="9" height="9" fill="#faeeda" rx="1" opacity="0.9"/>
  <rect x="254" y="123" width="9" height="9" fill="#fac775" rx="1" opacity="0.7"/>
  <rect x="267" y="123" width="9" height="9" fill="#faeeda" rx="1" opacity="0.6"/>
  <rect x="232" y="137" width="18" height="13" fill="#854f0b" rx="1"/>
  <rect x="254" y="137" width="18" height="13" fill="#854f0b" rx="1"/>
  <rect x="300" y="35" width="64" height="115" fill="#993556" rx="2"/>
  <rect x="305" y="24" width="54" height="13" fill="#d4537e" rx="1"/>
  <rect x="311" y="13" width="42" height="13" fill="#d4537e" rx="1"/>
  <rect x="319" y="4" width="26" height="11" fill="#ed93b1" rx="1"/>
  <rect x="303" y="48" width="9" height="9" fill="#f4c0d1" rx="1" opacity="0.9"/>
  <rect x="316" y="48" width="9" height="9" fill="#fbeaf0" rx="1" opacity="0.9"/>
  <rect x="329" y="48" width="9" height="9" fill="#f4c0d1" rx="1" opacity="0.7"/>
  <rect x="342" y="48" width="9" height="9" fill="#fbeaf0" rx="1" opacity="0.8"/>
  <rect x="355" y="48" width="9" height="9" fill="#f4c0d1" rx="1" opacity="0.9"/>
  <rect x="303" y="62" width="9" height="9" fill="#fbeaf0" rx="1" opacity="0.8"/>
  <rect x="316" y="62" width="9" height="9" fill="#f4c0d1" rx="1" opacity="0.9"/>
  <rect x="329" y="62" width="9" height="9" fill="#fbeaf0" rx="1" opacity="0.6"/>
  <rect x="342" y="62" width="9" height="9" fill="#f4c0d1" rx="1" opacity="0.9"/>
  <rect x="355" y="62" width="9" height="9" fill="#fbeaf0" rx="1" opacity="0.5"/>
  <rect x="303" y="76" width="9" height="9" fill="#f4c0d1" rx="1" opacity="0.9"/>
  <rect x="316" y="76" width="9" height="9" fill="#fbeaf0" rx="1" opacity="0.7"/>
  <rect x="329" y="76" width="9" height="9" fill="#f4c0d1" rx="1" opacity="0.9"/>
  <rect x="342" y="76" width="9" height="9" fill="#fbeaf0" rx="1" opacity="0.8"/>
  <rect x="355" y="76" width="9" height="9" fill="#f4c0d1" rx="1" opacity="0.6"/>
  <rect x="303" y="90" width="9" height="9" fill="#fbeaf0" rx="1" opacity="0.9"/>
  <rect x="316" y="90" width="9" height="9" fill="#f4c0d1" rx="1" opacity="0.6"/>
  <rect x="329" y="90" width="9" height="9" fill="#fbeaf0" rx="1" opacity="0.9"/>
  <rect x="342" y="90" width="9" height="9" fill="#f4c0d1" rx="1" opacity="0.8"/>
  <rect x="355" y="90" width="9" height="9" fill="#fbeaf0" rx="1" opacity="0.7"/>
  <rect x="303" y="104" width="9" height="9" fill="#f4c0d1" rx="1" opacity="0.8"/>
  <rect x="316" y="104" width="9" height="9" fill="#fbeaf0" rx="1" opacity="0.9"/>
  <rect x="329" y="104" width="9" height="9" fill="#f4c0d1" rx="1" opacity="0.5"/>
  <rect x="342" y="104" width="9" height="9" fill="#fbeaf0" rx="1" opacity="0.9"/>
  <rect x="355" y="104" width="9" height="9" fill="#f4c0d1" rx="1" opacity="0.6"/>
  <rect x="303" y="118" width="9" height="9" fill="#fbeaf0" rx="1" opacity="0.7"/>
  <rect x="316" y="118" width="9" height="9" fill="#f4c0d1" rx="1" opacity="0.9"/>
  <rect x="329" y="118" width="9" height="9" fill="#fbeaf0" rx="1" opacity="0.8"/>
  <rect x="342" y="118" width="9" height="9" fill="#f4c0d1" rx="1" opacity="0.5"/>
  <rect x="355" y="118" width="9" height="9" fill="#fbeaf0" rx="1" opacity="0.9"/>
  <rect x="307" y="132" width="20" height="18" fill="#72243e" rx="1"/>
  <rect x="331" y="132" width="20" height="18" fill="#72243e" rx="1"/>
  <rect x="355" y="132" width="9" height="18" fill="#72243e" rx="1"/>
  <rect x="380" y="65" width="54" height="85" fill="#3b6d11" rx="2"/>
  <rect x="385" y="55" width="44" height="12" fill="#639922" rx="1"/>
  <rect x="390" y="45" width="34" height="12" fill="#639922" rx="1"/>
  <rect x="382" y="77" width="8" height="8" fill="#c0dd97" rx="1" opacity="0.9"/>
  <rect x="394" y="77" width="8" height="8" fill="#eaf3de" rx="1" opacity="0.9"/>
  <rect x="406" y="77" width="8" height="8" fill="#c0dd97" rx="1" opacity="0.7"/>
  <rect x="418" y="77" width="8" height="8" fill="#eaf3de" rx="1" opacity="0.8"/>
  <rect x="382" y="90" width="8" height="8" fill="#eaf3de" rx="1" opacity="0.8"/>
  <rect x="394" y="90" width="8" height="8" fill="#c0dd97" rx="1" opacity="0.9"/>
  <rect x="406" y="90" width="8" height="8" fill="#eaf3de" rx="1" opacity="0.6"/>
  <rect x="418" y="90" width="8" height="8" fill="#c0dd97" rx="1" opacity="0.5"/>
  <rect x="382" y="103" width="8" height="8" fill="#c0dd97" rx="1" opacity="0.9"/>
  <rect x="394" y="103" width="8" height="8" fill="#eaf3de" rx="1" opacity="0.7"/>
  <rect x="406" y="103" width="8" height="8" fill="#c0dd97" rx="1" opacity="0.9"/>
  <rect x="418" y="103" width="8" height="8" fill="#eaf3de" rx="1" opacity="0.8"/>
  <rect x="382" y="116" width="8" height="8" fill="#eaf3de" rx="1" opacity="0.6"/>
  <rect x="394" y="116" width="8" height="8" fill="#c0dd97" rx="1" opacity="0.9"/>
  <rect x="406" y="116" width="8" height="8" fill="#eaf3de" rx="1" opacity="0.8"/>
  <rect x="418" y="116" width="8" height="8" fill="#c0dd97" rx="1" opacity="0.7"/>
  <rect x="384" y="129" width="16" height="21" fill="#27500a" rx="1"/>
  <rect x="404" y="129" width="16" height="21" fill="#27500a" rx="1"/>
  <rect x="450" y="83" width="44" height="67" fill="#534ab7" rx="2"/>
  <rect x="454" y="74" width="36" height="11" fill="#7f77dd" rx="1"/>
  <rect x="453" y="94" width="8" height="8" fill="#afa9ec" rx="1" opacity="0.9"/>
  <rect x="465" y="94" width="8" height="8" fill="#cecbf6" rx="1" opacity="0.9"/>
  <rect x="477" y="94" width="8" height="8" fill="#afa9ec" rx="1" opacity="0.7"/>
  <rect x="453" y="107" width="8" height="8" fill="#cecbf6" rx="1" opacity="0.8"/>
  <rect x="465" y="107" width="8" height="8" fill="#afa9ec" rx="1" opacity="0.9"/>
  <rect x="477" y="107" width="8" height="8" fill="#cecbf6" rx="1" opacity="0.6"/>
  <rect x="453" y="120" width="8" height="8" fill="#afa9ec" rx="1" opacity="0.9"/>
  <rect x="465" y="120" width="8" height="8" fill="#cecbf6" rx="1" opacity="0.7"/>
  <rect x="477" y="120" width="8" height="8" fill="#afa9ec" rx="1" opacity="0.5"/>
  <rect x="456" y="133" width="14" height="17" fill="#3c3489" rx="1"/>
  <rect x="474" y="133" width="14" height="17" fill="#3c3489" rx="1"/>
  <rect x="508" y="98" width="40" height="52" fill="#185fa5" rx="2"/>
  <rect x="511" y="89" width="34" height="11" fill="#378add" rx="1"/>
  <rect x="510" y="109" width="7" height="7" fill="#b5d4f4" rx="1" opacity="0.9"/>
  <rect x="521" y="109" width="7" height="7" fill="#e6f1fb" rx="1" opacity="0.9"/>
  <rect x="532" y="109" width="7" height="7" fill="#b5d4f4" rx="1" opacity="0.7"/>
  <rect x="510" y="121" width="7" height="7" fill="#e6f1fb" rx="1" opacity="0.8"/>
  <rect x="521" y="121" width="7" height="7" fill="#b5d4f4" rx="1" opacity="0.9"/>
  <rect x="532" y="121" width="7" height="7" fill="#e6f1fb" rx="1" opacity="0.6"/>
  <rect x="510" y="133" width="7" height="7" fill="#b5d4f4" rx="1" opacity="0.5"/>
  <rect x="521" y="133" width="7" height="7" fill="#e6f1fb" rx="1" opacity="0.9"/>
  <rect x="532" y="133" width="7" height="7" fill="#b5d4f4" rx="1" opacity="0.8"/>
  <rect x="514" y="143" width="12" height="7" fill="#0c447c" rx="1"/>
  <rect x="530" y="143" width="12" height="7" fill="#0c447c" rx="1"/>
  <rect x="562" y="108" width="40" height="42" fill="#ba7517" rx="2"/>
  <rect x="565" y="99" width="34" height="11" fill="#ef9f27" rx="1"/>
  <rect x="563" y="119" width="7" height="7" fill="#fac775" rx="1" opacity="0.9"/>
  <rect x="574" y="119" width="7" height="7" fill="#faeeda" rx="1" opacity="0.9"/>
  <rect x="585" y="119" width="7" height="7" fill="#fac775" rx="1" opacity="0.7"/>
  <rect x="596" y="119" width="7" height="7" fill="#faeeda" rx="1" opacity="0.8"/>
  <rect x="563" y="131" width="7" height="7" fill="#faeeda" rx="1" opacity="0.8"/>
  <rect x="574" y="131" width="7" height="7" fill="#fac775" rx="1" opacity="0.9"/>
  <rect x="585" y="131" width="7" height="7" fill="#faeeda" rx="1" opacity="0.6"/>
  <rect x="596" y="131" width="7" height="7" fill="#fac775" rx="1" opacity="0.9"/>
  <rect x="563" y="143" width="7" height="7" fill="#fac775" rx="1" opacity="0.5"/>
  <rect x="574" y="143" width="7" height="7" fill="#faeeda" rx="1" opacity="0.9"/>
  <rect x="585" y="143" width="7" height="7" fill="#fac775" rx="1" opacity="0.8"/>
  <rect x="596" y="143" width="7" height="7" fill="#faeeda" rx="1" opacity="0.7"/>
  <rect x="614" y="113" width="40" height="37" fill="#3b6d11" rx="2"/>
  <rect x="616" y="104" width="36" height="11" fill="#639922" rx="1"/>
  <rect x="615" y="124" width="7" height="7" fill="#c0dd97" rx="1" opacity="0.9"/>
  <rect x="626" y="124" width="7" height="7" fill="#eaf3de" rx="1" opacity="0.9"/>
  <rect x="637" y="124" width="7" height="7" fill="#c0dd97" rx="1" opacity="0.7"/>
  <rect x="648" y="124" width="7" height="7" fill="#eaf3de" rx="1" opacity="0.8"/>
  <rect x="615" y="136" width="7" height="7" fill="#eaf3de" rx="1" opacity="0.8"/>
  <rect x="626" y="136" width="7" height="7" fill="#c0dd97" rx="1" opacity="0.9"/>
  <rect x="637" y="136" width="7" height="7" fill="#eaf3de" rx="1" opacity="0.6"/>
  <rect x="648" y="136" width="7" height="7" fill="#c0dd97" rx="1" opacity="0.5"/>
  <rect x="619" y="147" width="12" height="3" fill="#27500a" rx="1"/>
  <rect x="637" y="147" width="12" height="3" fill="#27500a" rx="1"/>
  <rect x="0" y="150" width="680" height="16" fill="#1d9e75" opacity="0.15"/>
  <rect x="0" y="150" width="680" height="3" fill="#1d9e75" opacity="0.5"/>
  <text x="42"  y="167" font-size="8" font-family="monospace" text-anchor="middle" fill="#5dcaa5" font-weight="500">QUANTUM</text>
  <text x="103" y="167" font-size="8" font-family="monospace" text-anchor="middle" fill="#378add" font-weight="500">CLOUD</text>
  <text x="176" y="167" font-size="8" font-family="monospace" text-anchor="middle" fill="#7f77dd" font-weight="500">AI / ML</text>
  <text x="255" y="167" font-size="8" font-family="monospace" text-anchor="middle" fill="#ef9f27" font-weight="500">DATA SCI</text>
  <text x="332" y="167" font-size="8" font-family="monospace" text-anchor="middle" fill="#d4537e" font-weight="500">RESEARCH</text>
  <text x="407" y="167" font-size="8" font-family="monospace" text-anchor="middle" fill="#97c459" font-weight="500">CYBER</text>
  <text x="472" y="167" font-size="8" font-family="monospace" text-anchor="middle" fill="#7f77dd" font-weight="500">PYTHON</text>
  <text x="528" y="167" font-size="8" font-family="monospace" text-anchor="middle" fill="#378add" font-weight="500">GCP</text>
  <text x="582" y="167" font-size="8" font-family="monospace" text-anchor="middle" fill="#ef9f27" font-weight="500">SQL</text>
  <text x="636" y="167" font-size="8" font-family="monospace" text-anchor="middle" fill="#97c459" font-weight="500">C / C++</text>
  <rect x="0" y="179" width="680" height="31" fill="#0d1117"/>
  <text x="340" y="197" font-size="9" font-family="monospace" text-anchor="middle" fill="#1d9e75" opacity="0.6">// tridiv.swain — building the future, one block at a time</text>
</svg>
